<mxfile host="app.diagrams.net" modified="2024-03-15T04:24:45.743Z" agent="Mozilla/5.0 (Windows NT 10.0; Win64; x64) AppleWebKit/537.36 (KHTML, like Gecko) Chrome/122.0.0.0 Safari/537.36" etag="YUnIShOzhD_1EGg6KB8W" version="23.1.7" type="device">
  <diagram name="Page-1" id="VV6-sALHiS6JwSOowMjp">
    <mxGraphModel dx="724" dy="360" grid="1" gridSize="10" guides="1" tooltips="1" connect="1" arrows="1" fold="1" page="1" pageScale="1" pageWidth="827" pageHeight="1169" math="1" shadow="0">
      <root>
        <mxCell id="0" />
        <mxCell id="1" parent="0" />
        <mxCell id="uECH-gd4FNAFDu_qVeoH-1" value="$$\text{Agent}$$" style="rounded=1;whiteSpace=wrap;html=1;" vertex="1" parent="1">
          <mxGeometry x="350" y="330" width="110" height="40" as="geometry" />
        </mxCell>
        <mxCell id="uECH-gd4FNAFDu_qVeoH-2" value="$$\text{Environment}$$" style="rounded=1;whiteSpace=wrap;html=1;" vertex="1" parent="1">
          <mxGeometry x="350" y="220" width="110" height="40" as="geometry" />
        </mxCell>
        <mxCell id="uECH-gd4FNAFDu_qVeoH-4" value="&lt;span style=&quot;color: rgb(0, 0, 0); font-family: Helvetica; font-size: 10px; font-style: normal; font-variant-ligatures: normal; font-variant-caps: normal; font-weight: 400; letter-spacing: normal; orphans: 2; text-align: center; text-indent: 0px; text-transform: none; widows: 2; word-spacing: 0px; -webkit-text-stroke-width: 0px; text-decoration-thickness: initial; text-decoration-style: initial; text-decoration-color: initial; float: none; display: inline !important; background-color: rgb(255, 255, 255);&quot;&gt;\(\text{State}\)&lt;/span&gt;" style="endArrow=none;html=1;rounded=1;entryX=1;entryY=0.75;entryDx=0;entryDy=0;exitX=1;exitY=0.25;exitDx=0;exitDy=0;curved=0;startArrow=classic;startFill=1;endFill=0;" edge="1" parent="1" source="uECH-gd4FNAFDu_qVeoH-1" target="uECH-gd4FNAFDu_qVeoH-2">
          <mxGeometry x="0.0769" width="50" height="50" relative="1" as="geometry">
            <mxPoint x="490" y="340" as="sourcePoint" />
            <mxPoint x="433" y="260" as="targetPoint" />
            <Array as="points">
              <mxPoint x="480" y="340" />
              <mxPoint x="480" y="250" />
            </Array>
            <mxPoint as="offset" />
          </mxGeometry>
        </mxCell>
        <mxCell id="uECH-gd4FNAFDu_qVeoH-5" value="&lt;font style=&quot;font-size: 10px;&quot;&gt;&lt;span style=&quot;color: rgb(0, 0, 0); font-family: Helvetica; font-style: normal; font-variant-ligatures: normal; font-variant-caps: normal; font-weight: 400; letter-spacing: normal; orphans: 2; text-align: center; text-indent: 0px; text-transform: none; widows: 2; word-spacing: 0px; -webkit-text-stroke-width: 0px; text-decoration-thickness: initial; text-decoration-style: initial; text-decoration-color: initial; float: none; display: inline !important;&quot;&gt;&lt;span style=&quot;background-color: rgb(255, 255, 255);&quot;&gt;\(\text{Action}\)&lt;/span&gt;&lt;br&gt;&lt;/span&gt;&lt;/font&gt;" style="endArrow=classic;html=1;rounded=1;exitX=0;exitY=0.5;exitDx=0;exitDy=0;entryX=0;entryY=0.5;entryDx=0;entryDy=0;curved=0;" edge="1" parent="1">
          <mxGeometry x="0.0592" width="50" height="50" relative="1" as="geometry">
            <mxPoint x="349.52" y="350" as="sourcePoint" />
            <mxPoint x="349.52" y="240" as="targetPoint" />
            <Array as="points">
              <mxPoint x="320" y="350" />
              <mxPoint x="320" y="240" />
            </Array>
            <mxPoint as="offset" />
          </mxGeometry>
        </mxCell>
        <mxCell id="uECH-gd4FNAFDu_qVeoH-6" value="&lt;span style=&quot;color: rgb(0, 0, 0); font-family: Helvetica; font-size: 10px; font-style: normal; font-variant-ligatures: normal; font-variant-caps: normal; font-weight: 400; letter-spacing: normal; orphans: 2; text-align: center; text-indent: 0px; text-transform: none; widows: 2; word-spacing: 0px; -webkit-text-stroke-width: 0px; text-decoration-thickness: initial; text-decoration-style: initial; text-decoration-color: initial; float: none; display: inline !important; background-color: rgb(255, 255, 255);&quot;&gt;\(\text{Reward}\)&lt;/span&gt;" style="endArrow=none;html=1;rounded=1;entryX=1;entryY=0.25;entryDx=0;entryDy=0;exitX=1;exitY=0.75;exitDx=0;exitDy=0;curved=0;startArrow=classic;startFill=1;endFill=0;" edge="1" parent="1" source="uECH-gd4FNAFDu_qVeoH-1" target="uECH-gd4FNAFDu_qVeoH-2">
          <mxGeometry x="-0.1304" width="50" height="50" relative="1" as="geometry">
            <mxPoint x="470" y="350" as="sourcePoint" />
            <mxPoint x="470" y="260" as="targetPoint" />
            <Array as="points">
              <mxPoint x="510" y="360" />
              <mxPoint x="510" y="230" />
            </Array>
            <mxPoint as="offset" />
          </mxGeometry>
        </mxCell>
        <mxCell id="uECH-gd4FNAFDu_qVeoH-8" value="$$\text{a}$$" style="rounded=1;whiteSpace=wrap;html=1;" vertex="1" parent="1">
          <mxGeometry x="304" y="470" width="36" height="40" as="geometry" />
        </mxCell>
        <mxCell id="uECH-gd4FNAFDu_qVeoH-9" value="$$\text{b}$$" style="rounded=1;whiteSpace=wrap;html=1;" vertex="1" parent="1">
          <mxGeometry x="304" y="550" width="36" height="40" as="geometry" />
        </mxCell>
        <mxCell id="uECH-gd4FNAFDu_qVeoH-10" value="$$\text{c}$$" style="rounded=1;whiteSpace=wrap;html=1;" vertex="1" parent="1">
          <mxGeometry x="370" y="470" width="34" height="40" as="geometry" />
        </mxCell>
        <mxCell id="uECH-gd4FNAFDu_qVeoH-12" value="&lt;span style=&quot;color: rgb(0, 0, 0); font-family: Helvetica; font-size: 10px; font-style: normal; font-variant-ligatures: normal; font-variant-caps: normal; font-weight: 400; letter-spacing: normal; orphans: 2; text-align: center; text-indent: 0px; text-transform: none; widows: 2; word-spacing: 0px; -webkit-text-stroke-width: 0px; background-color: rgb(255, 255, 255); text-decoration-thickness: initial; text-decoration-style: initial; text-decoration-color: initial; float: none; display: inline !important;&quot;&gt;\(\text{Reward: 0}\)&lt;/span&gt;" style="endArrow=classic;html=1;rounded=0;exitX=0.5;exitY=1;exitDx=0;exitDy=0;entryX=0.5;entryY=0;entryDx=0;entryDy=0;" edge="1" parent="1" source="uECH-gd4FNAFDu_qVeoH-8" target="uECH-gd4FNAFDu_qVeoH-9">
          <mxGeometry x="0.0057" width="50" height="50" relative="1" as="geometry">
            <mxPoint x="370" y="550" as="sourcePoint" />
            <mxPoint x="420" y="500" as="targetPoint" />
            <mxPoint as="offset" />
          </mxGeometry>
        </mxCell>
        <mxCell id="uECH-gd4FNAFDu_qVeoH-14" value="" style="endArrow=classic;html=1;rounded=0;entryX=1;entryY=0.25;entryDx=0;entryDy=0;curved=1;exitX=1;exitY=0.75;exitDx=0;exitDy=0;" edge="1" parent="1" source="uECH-gd4FNAFDu_qVeoH-9" target="uECH-gd4FNAFDu_qVeoH-9">
          <mxGeometry width="50" height="50" relative="1" as="geometry">
            <mxPoint x="430" y="580" as="sourcePoint" />
            <mxPoint x="490" y="560" as="targetPoint" />
            <Array as="points">
              <mxPoint x="360" y="580" />
              <mxPoint x="360" y="560" />
            </Array>
          </mxGeometry>
        </mxCell>
        <mxCell id="uECH-gd4FNAFDu_qVeoH-17" value="\(\text{Reward: 100}\)" style="edgeLabel;html=1;align=center;verticalAlign=middle;resizable=0;points=[];" vertex="1" connectable="0" parent="uECH-gd4FNAFDu_qVeoH-14">
          <mxGeometry x="-0.009" y="-1" relative="1" as="geometry">
            <mxPoint x="29" as="offset" />
          </mxGeometry>
        </mxCell>
        <mxCell id="uECH-gd4FNAFDu_qVeoH-18" value="" style="endArrow=classic;html=1;rounded=0;entryX=1;entryY=0.25;entryDx=0;entryDy=0;curved=1;exitX=1;exitY=0.75;exitDx=0;exitDy=0;" edge="1" parent="1">
          <mxGeometry width="50" height="50" relative="1" as="geometry">
            <mxPoint x="404" y="500" as="sourcePoint" />
            <mxPoint x="404" y="480" as="targetPoint" />
            <Array as="points">
              <mxPoint x="424" y="500" />
              <mxPoint x="424" y="480" />
            </Array>
          </mxGeometry>
        </mxCell>
        <mxCell id="uECH-gd4FNAFDu_qVeoH-19" value="\(\text{Reward: 0}\)" style="edgeLabel;html=1;align=center;verticalAlign=middle;resizable=0;points=[];" vertex="1" connectable="0" parent="uECH-gd4FNAFDu_qVeoH-18">
          <mxGeometry x="-0.009" y="-1" relative="1" as="geometry">
            <mxPoint x="29" as="offset" />
          </mxGeometry>
        </mxCell>
      </root>
    </mxGraphModel>
  </diagram>
</mxfile>
